<?xml version="1.0" encoding="UTF-8"?>
<svg width="1.5rem" height="1.5rem" viewBox="0 0 640 640" version="1.1" xmlns="http://www.w3.org/2000/svg" xmlns:xlink="http://www.w3.org/1999/xlink">
    <!-- Generator: Sketch 49 (51002) - http://www.bohemiancoding.com/sketch -->
    <title>report_personal_height_green</title>
    <desc>Created with Sketch.</desc>
    <defs></defs>
    <g id="亲属端" stroke="none" stroke-width="1" fill="none" fill-rule="evenodd">
        <g id="Artboard" transform="translate(-2590.000000, -6728.000000)" fill="#0ABA08" fill-rule="nonzero">
            <g id="report_personal_height_green" transform="translate(2590.000000, 6728.000000)">
                <path d="M375.611959,202.995865 C351.819001,180.922792 317.808598,168.244788 282.318098,168.244788 L211.496249,168.244788 C176.005749,168.244788 141.995346,180.922792 118.186473,202.995865 L4.1075921,308.903909 C-1.58998566,314.20198 -1.31943077,322.302558 4.66461814,327.320378 L43.513188,359.856141 C46.6484476,362.471813 50.8022685,364.00652 55.3221343,363.752959 C59.7305953,363.632852 63.8844161,361.991384 66.7809504,359.202223 L148.647826,280.732049 L148.647826,626.628042 C148.647826,634.02132 155.777756,640 164.578763,640 L219.501505,640 C228.286598,640 235.432443,634.02132 235.432443,626.628042 L235.432442,425.14119 L258.461479,425.14119 L258.461479,626.628042 C258.461479,634.02132 265.591409,640 274.392417,640 L329.267414,640 C338.068421,640 345.182436,634.02132 345.150606,626.628042 L345.150606,280.745394 L427.033396,359.202223 C429.96176,361.991384 434.131497,363.632852 438.539958,363.75296 C442.805183,364.03321 447.213645,362.458469 450.317074,359.856142 L489.117899,327.320379 C495.149692,322.289213 495.356588,314.201981 489.65901,308.90391 L375.611959,202.995865 Z M439.697334,330.734116 L341.157468,236.108545 C336.831638,231.911874 329.754453,230.441703 323.599687,232.393021 C317.39721,234.357705 313.278129,239.356287 313.278129,244.929573 L313.278129,613.581708 L290.297157,613.581708 L290.233542,613.581708 L290.233541,411.78065 C290.233541,404.376332 283.108645,398.388726 274.31385,398.388726 L219.461687,398.388726 C210.682797,398.388726 203.541996,404.376332 203.541996,411.78065 L203.541996,613.581708 L180.529216,613.581708 L180.529217,244.916208 C180.529217,239.342922 176.42604,234.330975 170.223563,232.379656 C164.021086,230.441703 157.007516,231.911874 152.633974,236.108545 L54.1259156,330.734116 L38.0630902,317.262001 L141.914821,220.645016 C159.679351,204.139002 185.045892,194.66308 211.525698,194.66308 L282.297551,194.66308 C308.761453,194.66308 334.143897,204.139002 351.908427,220.645016 L455.72835,317.262001 L439.697334,330.734116 Z" id="Shape"></path>
                <path d="M624.113447,0 L550.987645,0 C542.202381,0 535.069319,5.97333312 535.069319,13.36 C535.069319,20.72 542.186494,26.7066668 550.987645,26.7066668 L608.179235,26.7066668 L608.179235,153.333333 L569.30484,153.333333 C560.487803,153.333333 553.386514,159.32 553.386514,166.693333 C553.386514,174.053333 560.487803,180.04 569.30484,180.04 L608.179235,180.04 L608.179235,306.653333 L569.30484,306.653333 C560.487803,306.653333 553.386514,312.626666 553.386514,320 C553.386514,327.373333 560.487803,333.36 569.30484,333.36 L608.179235,333.36 L608.179235,459.96 L569.30484,459.96 C560.487803,459.96 553.386514,465.906666 553.386514,473.306666 C553.386514,480.706666 560.487803,486.666666 569.30484,486.666666 L608.179235,486.666666 L608.179235,613.293333 L550.987645,613.293333 C542.186494,613.293333 535.069319,619.266666 535.069319,626.64 C535.069319,634.026667 542.186494,640 550.987645,640 L624.09756,640 C632.882824,640 639.984113,634.026667 640,626.64 L639.999999,13.3466669 C639.999999,5.97333312 632.89871,0 624.113447,0 Z" id="Shape"></path>
                <path d="M247.924452,168.244788 C297.259524,168.244788 337.424151,130.489955 337.424151,84.1148851 C337.424151,37.7398157 297.259524,0 247.924452,0 C198.573404,0 158.424754,37.7398157 158.424754,84.1148851 C158.424753,130.504973 198.573404,168.244788 247.924452,168.244788 Z M247.924452,30.4056845 C279.682234,30.4056845 305.533454,54.4837874 305.533454,84.1149299 C305.533454,113.731145 279.682235,137.839103 247.924452,137.839103 C216.16667,137.839103 190.315451,113.731145 190.315451,84.1149299 C190.315451,54.4837867 216.16667,30.4056845 247.924452,30.4056845 Z" id="Shape"></path>
            </g>
        </g>
    </g>
</svg>