<?xml version="1.0" encoding="UTF-8"?>
<svg width="1.5rem" height="1.5rem" viewBox="0 0 640 640" version="1.1" xmlns="http://www.w3.org/2000/svg" xmlns:xlink="http://www.w3.org/1999/xlink">
    <!-- Generator: Sketch 49 (51002) - http://www.bohemiancoding.com/sketch -->
    <title>report_personal_weight_green</title>
    <desc>Created with Sketch.</desc>
    <defs></defs>
    <g id="亲属端" stroke="none" stroke-width="1" fill="none" fill-rule="evenodd">
        <g id="Artboard" transform="translate(-2590.000000, -8021.000000)" fill="#0ABA08">
            <g id="report_personal_weight_green" transform="translate(2590.000000, 8021.000000)">
                <path d="M276.127293,375.214148 L195.609748,310.012325 C187.454836,303.408608 186.197345,291.444376 192.801062,283.289465 L194.099097,281.686525 C200.702814,273.531614 212.667046,272.274122 220.821958,278.877839 L297.317006,340.822308 C303.940749,336.823261 311.702131,334.522692 320,334.522692 C344.300529,334.522692 364,354.252991 364,378.591549 C364,402.930107 344.300529,422.660407 320,422.660407 C295.699471,422.660407 276,402.930107 276,378.591549 C276,377.45519 276.042943,376.328877 276.127293,375.214148 Z" id="Combined-Shape"></path>
                <path d="M88,0 L552,0 C600.601058,-8.92786951e-15 640,39.398942 640,88 L640,552 C640,600.601058 600.601058,640 552,640 L88,640 C39.398942,640 5.95191301e-15,600.601058 0,552 L0,88 C-5.95191301e-15,39.398942 39.398942,8.92786951e-15 88,0 Z M104,40.0625978 C68.653776,40.0625978 40,68.7163738 40,104.062598 L40,536.938967 C40,572.285191 68.653776,600.938967 104,600.938967 L536,600.938967 C571.346224,600.938967 600,572.285191 600,536.938967 L600,104.062598 C600,68.7163738 571.346224,40.0625978 536,40.0625978 L104,40.0625978 Z" id="Combined-Shape"></path>
                <path d="M533,333.521127 C533,343.47781 524.941125,351.549296 515,351.549296 C505.058875,351.549296 497,343.47781 497,333.521127 C497,235.613746 417.754401,156.244131 320,156.244131 C222.245599,156.244131 143,235.613746 143,333.521127 C143,343.47781 134.941125,351.549296 125,351.549296 C115.058875,351.549296 107,343.47781 107,333.521127 C107,215.70038 202.363348,120.187793 320,120.187793 C437.636652,120.187793 533,215.70038 533,333.521127 Z" id="Oval-3" fill-rule="nonzero"></path>
            </g>
        </g>
    </g>
</svg>