<?xml version="1.0" encoding="UTF-8"?>
<svg width="2rem" height="2rem" viewBox="0 0 44 44" version="1.1" xmlns="http://www.w3.org/2000/svg" xmlns:xlink="http://www.w3.org/1999/xlink">
    <!-- Generator: Sketch 49 (51002) - http://www.bohemiancoding.com/sketch -->
    <title>ic_female</title>
    <desc>Created with Sketch.</desc>
    <defs></defs>
    <g id="亲属端" stroke="none" stroke-width="1" fill="none" fill-rule="evenodd">
        <g id="ic_female" fill="#E3593C">
            <path d="M22.12,7 C17.2684025,7 13,11.2312756 13,16.12 C13,21.1786552 16.5955459,25.1400242 21.36,26 L21.36,29.04 L16.8,29.04 L16.8,31.32 L21.36,31.32 L21.36,35.88 L23.64,35.88 L23.64,31.32 L28.2,31.32 L28.2,29.04 L23.64,29.04 L23.64,26 C28.4044541,25.1400242 32,21.1788164 32,16.12 C32,11.2312756 27.7315975,7 22.12,7 Z M22.5,9.28 C26.5030518,9.28 29.72,12.4970465 29.72,16.5 C29.72,20.5029535 26.5030518,23.72 22.5,23.72 C18.4969061,23.72 15.28,20.503122 15.28,16.5 C15.28,12.4970465 18.4969061,9.28 22.5,9.28 Z"></path>
        </g>
    </g>
</svg>