<?xml version="1.0" encoding="UTF-8"?>
<svg width="2rem" height="2rem" viewBox="0 0 44 44" version="1.1" xmlns="http://www.w3.org/2000/svg" xmlns:xlink="http://www.w3.org/1999/xlink">
    <!-- Generator: Sketch 49 (51002) - http://www.bohemiancoding.com/sketch -->
    <title>ic_male</title>
    <desc>Created with Sketch.</desc>
    <defs>
        <polygon id="path-1" points="6 5 38 5 38 38 6 38"></polygon>
    </defs>
    <g id="亲属端" stroke="none" stroke-width="1" fill="none" fill-rule="evenodd">
        <g id="ic_male">
            <mask id="mask-2" fill="white">
                <use xlink:href="#path-1"></use>
            </mask>
            <g id="Clip-2"></g>
            <path d="M25.0783426,9 L25.0783426,11.4861274 L30.2773796,11.4861274 L25.1801987,16.9891108 C21.2620167,14.2517424 15.2868691,14.6013065 11.7340116,18.4380671 C7.86860163,22.6152272 8.14000047,29.1970152 12.306671,33.0757366 C16.4695232,36.9540652 22.9572804,36.6670495 26.8264109,32.4900531 C30.3792357,28.6532597 30.669139,23.0138547 27.1616779,18.8349271 L32.5194225,13.0456808 L32.5194225,18.9482081 L35,18.9482081 L35,9 L25.0783426,9 M24.8147101,30.9105525 C21.9178677,34.0309131 17.0234979,34.2125588 13.9009732,31.3160731 C10.782327,28.4177975 10.5985789,23.5218839 13.4990346,20.4012582 C16.3958769,17.2825881 21.2902136,17.0988542 24.4131361,19.9974281 C27.5316828,22.8938806 27.7116519,27.790192 24.8147101,30.9105525" id="Fill-1" fill="#60C1E9" mask="url(#mask-2)"></path>
        </g>
    </g>
</svg>