<?xml version="1.0" encoding="UTF-8"?>
<svg width="63px" height="59px" viewBox="0 0 63 59" version="1.1" xmlns="http://www.w3.org/2000/svg" xmlns:xlink="http://www.w3.org/1999/xlink">
    <!-- Generator: Sketch 49 (51002) - http://www.bohemiancoding.com/sketch -->
    <title>ic_refresh</title>
    <desc>Created with Sketch.</desc>
    <defs></defs>
    <g id="亲属端" stroke="none" stroke-width="1" fill="none" fill-rule="evenodd">
        <g id="创越主界面-copy" transform="translate(-346.000000, -512.000000)" fill="#1C1A20" fill-rule="nonzero">
            <g id="ic_refresh" transform="translate(346.000000, 512.000000)">
                <path d="M62.1226134,21.9636495 C61.2132798,21.3596536 59.9943526,21.6054259 59.3925011,22.5091441 L58.5035032,23.8411321 C55.852734,10.2744801 43.8768218,0 29.5309525,0 C12.9717009,0 0,12.9581047 0,29.5 C0,46.0418953 12.9717009,59 29.5309525,59 C39.188136,59 49.1124634,53.2402256 54.814829,44.3259296 C55.399345,43.4097785 55.1320901,42.194127 54.2149777,41.6093355 C53.3017546,41.0245441 52.0809383,41.2915189 51.4964223,42.2075591 C47.4032539,48.6088501 39.0226713,55.0667555 29.5308414,55.0667555 C15.1787491,55.0667555 3.93737143,43.8362722 3.93737143,29.500111 C3.93737143,15.1639498 15.1788602,3.93335552 29.5309525,3.93335552 C42.3142969,3.93335552 52.9083731,13.3547372 54.7953821,25.6061634 L52.2789626,23.9303828 C51.3696289,23.3263869 50.1507018,23.5712711 49.5488502,24.4758773 C48.9451096,25.3794845 49.1893617,26.6010193 50.0949171,27.2031282 L56.0010853,31.1364837 C56.068538,31.181331 56.143325,31.2008685 56.2137781,31.2363912 C56.2800084,31.2701377 56.4646977,31.3034402 56.5350396,31.3295271 C56.7569557,31.4120062 57.3364712,31.4668443 57.3364712,31.4668443 L57.3364712,31.4323207 L57.3364712,31.4428665 C57.3364712,31.4428665 57.0949972,31.4428665 57.0959973,31.4428665 C57.3305816,31.4428665 57.5588318,31.3986852 57.778192,31.3169831 C57.8224196,31.3004429 57.865536,31.2933384 57.9082079,31.2739119 C58.1063433,31.1837732 58.2896991,31.0662155 58.4514967,30.9108039 C58.4828339,30.8808317 58.506059,30.8475292 58.5353959,30.8155589 C58.6024041,30.7421824 58.674413,30.6755774 58.7313088,30.5904341 L62.6687914,24.6907893 C63.2723099,23.7868491 63.0281689,22.5657583 62.1226134,21.9636495 Z" id="Shape"></path>
            </g>
        </g>
    </g>
</svg>