<?xml version="1.0" encoding="UTF-8"?>
<svg width="1024px" height="928px" viewBox="0 0 1024 928" version="1.1" xmlns="http://www.w3.org/2000/svg" xmlns:xlink="http://www.w3.org/1999/xlink">
    <!-- Generator: Sketch 49 (51002) - http://www.bohemiancoding.com/sketch -->
    <title>me_ic_sweep</title>
    <desc>Created with Sketch.</desc>
    <defs></defs>
    <g id="亲属端" stroke="none" stroke-width="1" fill="none" fill-rule="evenodd">
        <g id="Artboard" transform="translate(-4191.000000, -7368.000000)" fill-rule="nonzero">
            <g id="me_ic_sweep" transform="translate(4191.000000, 7368.000000)">
                <path d="M2.44050842e-13,871.999999 C-3.85475049e-06,892.006873 97.586644,910.493986 255.999997,920.497422 C414.41335,930.500859 609.58665,930.500859 768.000003,920.497422 C926.413356,910.493986 1024,892.006873 1024,871.999999 C1024,841.072054 794.769792,816 512,816 C229.230208,816 4.63615574e-14,841.072054 1.47312718e-14,871.999999 Z" id="Shape" fill-opacity="0.2" fill="#F5A623"></path>
                <polygon id="Shape" points="688 714.458834 688 122.580881 668.497645 31.718763 621.737086 31.718763 494.171395 16 118.193051 16 80 67.3058619 80 756.473261 88.1165869 808.094851 136.771016 832 586.497571 832 633.010123 825.978609 677.696444 801.442003"></polygon>
                <g id="扫码" transform="translate(240.000000, 192.000000)" fill="#F5A623">
                    <path d="M240,66.7248908 L240,13.2751092 C240,5.93886463 247.157895,0 256,0 C264.842105,0 272,5.93886463 272,13.2751092 L272,66.7248908 C272,74.0611354 264.842105,80 256,80 C247.157895,80 240,74.0611354 240,66.7248908 Z" id="Shape"></path>
                    <path d="M191.944034,5.68434189e-14 L256.072635,5.68434189e-14 C264.8746,5.68434189e-14 272,7.15789474 272,16 C272,24.8421053 264.8746,32 256.072635,32 L191.944034,32 C183.142069,32 176.016669,24.8421053 176.016669,16 C175.597528,7.15789474 183.142069,5.68434189e-14 191.944034,5.68434189e-14 Z M0,66.7248908 L0,13.2751092 C0,5.93886463 7.15789474,0 16,0 C24.8421053,0 32,5.93886463 32,13.2751092 L32,66.7248908 C32,74.0611354 24.8421053,80 16,80 C7.15789474,80 0,74.0611354 0,66.7248908 Z" id="Shape"></path>
                    <path d="M15.930131,0 L80.069869,0 C88.8733624,0 96,7.15789474 96,16 C96,24.8421053 88.8733624,32 80.069869,32 L15.930131,32 C7.12663755,32 0,24.8421053 0,16 C0,7.15789474 7.12663755,0 15.930131,0 Z M80.069869,240 L15.930131,240 C7.12663755,240 0,232.842105 0,224 C0,215.157895 7.12663755,208 15.930131,208 L80.069869,208 C88.8733624,208 96,215.157895 96,224 C96,232.842105 88.8733624,240 80.069869,240 Z" id="Shape"></path>
                    <path d="M0,226.724891 L0,173.275109 C0,165.938865 7.15789474,160 16,160 C24.8421053,160 32,165.938865 32,173.275109 L32,226.724891 C32,234.061135 24.8421053,240 16,240 C7.15789474,240 0,234.061135 0,226.724891 Z M191.944034,208 L256.072635,208 C264.8746,208 272,215.157895 272,224 C272,232.842105 264.8746,240 256.072635,240 L191.944034,240 C183.142069,240 176.016669,232.842105 176.016669,224 C175.597528,215.157895 183.142069,208 191.944034,208 Z" id="Shape"></path>
                    <path d="M272,173.275109 L272,226.724891 C272,234.061135 264.842105,240 256,240 C247.157895,240 240,234.061135 240,226.724891 L240,173.275109 C240,165.938865 247.157895,160 256,160 C264.842105,160 272,165.938865 272,173.275109 Z" id="Shape"></path>
                </g>
                <path d="M355.195219,720 L412.804781,720 C423.406008,720 432,711.048482 432,700.006225 L432,659.993775 C432,648.951518 423.406008,640 412.804781,640 L355.195219,640 C344.593992,640 336,648.951518 336,659.993775 L336,700.006225 C336,711.061313 344.581673,720 355.195219,720 Z M765.292503,831.177306 C759.438542,831.177306 758.152444,831.952989 753.69545,827.322395 L619.431292,688.451587 C610.517305,679.260916 602.933764,659.89234 612.291233,649.925985 C622.380447,639.136937 638.367971,649.432369 647.281958,658.646546 L759.660283,774.928517 L989.893933,536.793758 C998.852268,527.556076 1009.25192,524.265298 1018.21026,533.479475 C1027.07989,542.717158 1025.21727,558.489384 1016.30328,567.727066 L779.528274,815.099507 C775.026932,819.68309 765.447722,832 759.660283,832 L765.292503,831.177306 Z" id="Shape" fill="#F5A623"></path>
                <path d="M654.058192,774.927922 C648.845131,798.49159 623.82699,816.866308 598.695027,816.866308 L137.236679,816.866308 C108.211994,816.866308 74.1108345,788.338322 74.1108345,759.38354 L74.1108345,568.313422 L660.910294,568.313422 L663.095682,635.837143 L688,662.253609 L688,265.108103 L660.910294,265.108103 L660.910294,532.260337 L74.08807,532.260337 L74.08807,88.6164605 C74.08807,59.6616778 108.234758,30.6619692 137.259444,30.6619692 L598.717792,30.6619692 C627.742477,30.6619692 660.864765,59.6616778 660.864765,88.6164605 L660.864765,266.481855 L687.931707,266.481855 L687.931707,88.6164605 C687.931707,39.7819396 647.866259,0 598.649498,0 L137.236679,0 C88.0199189,0 48,39.7819396 48,88.6164605 L48,759.38354 C48,808.262986 88.0199189,848 137.236679,848 L598.695027,848 C633.114889,848 662.708686,828.344892 677.573878,799.906757 L654.058192,774.927922 Z" id="Shape" fill="#F5A623"></path>
            </g>
        </g>
    </g>
</svg>