<?xml version="1.0" encoding="UTF-8"?>
<svg width="1024px" height="928px" viewBox="0 0 1024 928" version="1.1" xmlns="http://www.w3.org/2000/svg" xmlns:xlink="http://www.w3.org/1999/xlink">
    <!-- Generator: Sketch 49 (51002) - http://www.bohemiancoding.com/sketch -->
    <title>me_ic_certify</title>
    <desc>Created with Sketch.</desc>
    <defs></defs>
    <g id="亲属端" stroke="none" stroke-width="1" fill="none" fill-rule="evenodd">
        <g id="Artboard" transform="translate(-4191.000000, -5881.000000)" fill-rule="nonzero">
            <g id="me_ic_certify" transform="translate(4191.000000, 5881.000000)">
                <path d="M2.29319571e-13,871.999999 C-3.8547505e-06,892.006873 97.586644,910.493986 255.999997,920.497422 C414.41335,930.500859 609.58665,930.500859 768.000003,920.497422 C926.413356,910.493986 1024,892.006873 1024,871.999999 C1024,841.072054 794.769792,816 512,816 C229.230208,816 3.16302856e-14,841.072054 0,871.999999 Z" id="Shape" fill-opacity="0.2" fill="#EB889E"></path>
                <polygon id="Shape" points="688 714.458834 688 122.580881 668.497645 31.718763 621.737086 31.718763 494.171395 16 118.193051 16 80 67.3058619 80 756.473261 88.1165869 808.094851 136.771016 832 586.497571 832 633.010123 825.978609 677.696444 801.442003"></polygon>
                <path d="M355.195219,720 L412.804781,720 C423.406008,720 432,711.048482 432,700.006225 L432,659.993775 C432,648.951518 423.406008,640 412.804781,640 L355.195219,640 C344.593992,640 336,648.951518 336,659.993775 L336,700.006225 C336,711.061313 344.581673,720 355.195219,720 Z M197.15445,368.080558 L197.15445,350.294447 L220.474751,350.294447 L220.474751,246.47121 L194.528985,256.286194 L193.267733,237.790907 L229.457958,223.891075 L238.055067,223.891075 L238.055067,350.322814 L256.845155,350.322814 L256.845155,368.108925 L197.15445,368.108925 L197.15445,368.080558 Z M328.678153,288.369276 C323.93357,282.83771 321.498017,275.178619 321.498017,266.498315 C321.498017,242.074324 342.310924,223.891075 372.64463,223.891075 C402.598768,223.891075 423.917765,240.457405 423.917765,267.774831 C423.917765,288.113973 413.163375,302.949916 388.396648,322.352947 C377.24117,331.083539 366.698604,340.424668 356.82935,350.322814 L426.384948,350.322814 L426.384948,368.108925 L320.422578,368.108925 L320.422578,358.464144 C338.009246,340.953207 356.391594,324.098416 375.52301,307.942509 C394.18504,292.595959 401.839635,281.192424 401.839635,267.945033 C401.839635,252.201345 390.294481,242.131058 372.233432,242.131058 C354.457058,242.131058 343.576146,252.371547 343.576146,265.136699 C343.576146,270.668265 345.50561,275.944528 349.396169,281.362626 L328.678153,288.369276 Z M486.846962,329.887862 C495.500876,343.081906 506.302243,350.331686 520.789536,350.331686 C539.443528,350.331686 552.264142,339.748674 552.264142,324.276921 C552.264142,309.082937 542.071754,300.999848 525.533163,300.999848 L514.090765,300.999848 L514.090765,283.750371 L525.308802,283.750371 C539.283271,283.750371 548.097443,277.195014 548.097443,263.084331 C548.097443,250.001394 537.328127,241.807198 521.558773,241.807198 C508.033025,241.807198 497.327813,248.806986 489.058517,263.556539 L471.14171,253.945719 C481.59051,234.751856 498.866287,223.891075 521.526721,223.891075 C550.950029,223.891075 570.40531,238.52952 570.40531,261.695484 C570.40531,276.028383 562.648839,285.778088 549.058989,292.388998 C564.956549,297.805501 574.732267,308.277406 574.732267,324.499136 C574.732267,351.192772 552.520554,368.108925 520.212608,368.108925 C496.173958,368.108925 479.635366,358.025898 468.769897,341.581952 L486.846962,329.887862 Z M509.035597,368.108925 C491.617125,368.108925 478.408118,360.865378 468.769897,346.022042 L477.450102,339.401914 C486.072245,352.553109 496.610421,358.995117 509.529121,358.995117 C529.095871,358.995117 542.856464,345.487682 542.856464,326.191345 C542.856464,307.518429 531.969919,296.385927 513.825677,296.385927 L508.222735,296.385927 L508.222735,287.865852 L513.5644,287.865852 C529.502302,287.865852 538.966338,277.772384 538.966338,260.791607 C538.966338,244.196758 527.470147,233.064256 510.22586,233.064256 C497.423283,233.064256 486.856076,240.189057 478.930672,254.290226 L470.889144,249.243492 C479.801595,232.648643 493.27188,223.891075 510.196829,223.891075 C534.524628,223.891075 549.649668,237.457884 549.649668,259.307274 C549.649668,272.131916 544.249941,281.156664 532.811811,287.776792 L523.783237,292.942273 L533.421458,296.771853 C546.804651,302.174828 553.539793,312.149549 553.539793,326.458525 C553.539793,351.810943 536.06326,368.108925 509.035597,368.108925 Z M320.422578,368.078551 L320.422578,364.828486 C335.598847,346.725724 351.420267,329.267492 367.851012,312.493322 C385.524285,294.997643 392.773417,281.511391 392.773417,265.929302 C392.773417,246.337787 380.382458,233.246403 361.866263,233.246403 C344.417769,233.246403 331.745835,245.699924 331.745835,262.922233 C331.745835,267.96439 332.729245,272.824301 334.808453,277.562714 L324.918164,281.602514 C322.435122,276.277797 321.209246,270.37169 321.349792,264.41058 C321.349792,240.566643 338.152046,223.891075 362.119139,223.891075 C387.041545,223.891075 403.057071,240.323648 403.057071,265.77743 C403.057071,284.943703 394.936918,299.766431 373.161423,320.360303 C366.249459,326.708561 355.150981,338.038228 344.670645,350.795493 L337.646292,359.269963 L405.192474,359.269963 L405.192474,368.108925 L320.422578,368.108925 L320.422578,368.078551 Z M197.559879,368.078551 L197.559879,359.239588 L224.564636,359.239588 L224.564636,235.858605 L194.012897,246.550408 L193.267733,237.225455 L230.883629,223.891075 L235.026743,223.891075 L235.026743,359.269963 L256.845155,359.269963 L256.845155,368.108925 L197.559879,368.108925 L197.559879,368.078551 Z M755.342215,831.220605 C749.263101,831.220605 747.927538,831.955463 743.299122,827.568585 L603.870957,696.006767 C594.614125,687.299815 586.738909,668.950638 596.45628,659.508828 C606.933541,649.287624 623.53597,659.041192 632.792803,667.770412 L749.49337,777.932279 L988.582161,552.330929 C997.885048,543.57944 1008.68469,540.461862 1017.98757,549.191082 C1027.19835,557.94257 1025.26409,572.884679 1016.00726,581.636168 L770.125515,815.989007 C765.451045,820.331349 755.503403,832 749.49337,832 L755.342215,831.220605 Z" id="Shape" fill="#EB889E"></path>
                <path d="M654.058192,774.927922 C648.845131,798.49159 623.82699,816.866308 598.695027,816.866308 L137.236679,816.866308 C108.211994,816.866308 74.1108345,788.338322 74.1108345,759.38354 L74.1108345,568.313422 L660.910294,568.313422 L663.095682,635.837143 L688,662.253609 L688,265.108103 L660.910294,265.108103 L660.910294,532.260337 L74.08807,532.260337 L74.08807,88.6164605 C74.08807,59.6616778 108.234758,30.6619692 137.259444,30.6619692 L598.717792,30.6619692 C627.742477,30.6619692 660.864765,59.6616778 660.864765,88.6164605 L660.864765,268.675505 L687.931707,268.675505 L687.931707,88.6164605 C687.931707,39.7819396 647.866259,0 598.649498,0 L137.236679,0 C88.0199189,0 48,39.7819396 48,88.6164605 L48,759.38354 C48,808.262986 88.0199189,848 137.236679,848 L598.695027,848 C633.114889,848 662.708686,828.344892 677.573878,799.906757 L654.058192,774.927922 Z" id="Shape" fill="#EB889E"></path>
            </g>
        </g>
    </g>
</svg>