<?xml version="1.0" encoding="UTF-8"?>
<svg width="2.08rem" height="2.08rem" viewBox="0 0 1024 1024" version="1.1" xmlns="http://www.w3.org/2000/svg" xmlns:xlink="http://www.w3.org/1999/xlink">
    <!-- Generator: Sketch 48.1 (47250) - http://www.bohemiancoding.com/sketch -->
    <title>recipe_ic_doing</title>
    <desc>Created with Sketch.</desc>
    <defs></defs>
    <g id="亲属端" stroke="none" stroke-width="1" fill="none" fill-rule="evenodd">
        <g id="recipe_ic_doing" fill="#646464" fill-rule="nonzero">
            <path d="M781,669 L429,669 L429,317 C429,297.8 441.8,285 461,285 C480.2,285 493,297.8 493,317 L493,605 L781,605 C800.2,605 813,617.8 813,637 C813,656.2 800.2,669 781,669 Z M1024,473.6 L1024,467.2 C1024,451.2 1008,438.4 988.8,441.6 C969.6,441.6 956.8,460.8 960,476.8 L960,534.4 C960,553.6 972.8,566.4 988.8,569.6 L992,569.6 C1008,569.6 1024,556.8 1024,540.8 L1024,512 L1024,473.6 Z M956.8,691.2 C940.8,684.8 921.6,691.2 915.2,707.2 C905.6,726.4 896,742.4 886.4,758.4 C876.8,774.4 880,793.6 896,803.2 C902.4,806.4 908.8,809.6 912,809.6 C921.6,809.6 931.2,803.2 937.6,796.8 C950.4,777.6 960,758.4 969.6,739.2 C982.4,720 972.8,700.8 956.8,691.2 Z M809.6,889.6 C800,873.6 780.8,870.4 764.8,880 C748.8,889.6 732.8,899.2 713.6,908.8 C697.6,915.2 691.2,934.4 700.8,950.4 C707.2,963.2 716.8,969.6 729.6,969.6 C736,969.6 739.2,969.6 745.6,966.4 C764.8,956.8 784,944 803.2,931.2 C816,924.8 819.2,905.6 809.6,889.6 Z" id="Shape"></path>
            <path d="M969.6,310.4 L899.2,288 L713.6,227.2 L790.4,160 C710.4,96 614.4,64 512,64 C265.6,64 64,265.6 64,512 C64,758.4 265.6,960 512,960 C531.2,960 544,972.8 544,992 C544,1011.2 531.2,1024 512,1024 C230.4,1024 0,793.6 0,512 C0,230.4 230.4,0 512,0 C630.4,0 745.6,41.6 838.4,118.4 L912,51.2 L956.8,262.4 L969.6,310.4 Z" id="Shape"></path>
        </g>
    </g>
</svg>