<?xml version="1.0" encoding="UTF-8"?>
<svg width="2.08rem" height="2.08rem" viewBox="0 0 1024 1024" version="1.1" xmlns="http://www.w3.org/2000/svg" xmlns:xlink="http://www.w3.org/1999/xlink">
    <!-- Generator: Sketch 49 (51002) - http://www.bohemiancoding.com/sketch -->
    <title>recipe_ic_done</title>
    <desc>Created with Sketch.</desc>
    <defs></defs>
    <g id="亲属端" stroke="none" stroke-width="1" fill="none" fill-rule="evenodd">
        <g id="Artboard" transform="translate(-613.000000, -661.000000)" fill="#4CAF50" fill-rule="nonzero">
            <g id="recipe_ic_done" transform="translate(613.000000, 661.000000)">
                <path d="M512.188824,0.141915845 C230.233104,0.141915845 0.835623541,229.766748 0.835623541,512.001908 C0.835623541,794.237068 230.233104,1023.8619 512.188824,1023.8619 C794.144543,1023.8619 1023.54202,794.237067 1023.54202,512.001907 C1023.54202,229.766747 794.144542,0.141915845 512.188824,0.141915845 Z M799.172515,371.986643 L466.634977,713.226291 C458.6878,721.369318 447.786885,725.992804 436.405612,726.057192 L436.175289,726.057192 C424.879091,726.057192 414.038352,721.55729 406.047598,713.559656 L227.232974,534.608314 C210.584361,517.968126 210.584361,490.955211 227.232974,474.294253 C243.877436,457.629141 270.842856,457.629141 287.487318,474.294253 L435.843292,622.750527 L738.253139,312.337234 C754.731603,295.510113 781.739559,295.194403 798.507483,311.671544 C815.339732,328.145569 815.634379,355.158483 799.172515,371.986643 Z" id="Shape"></path>
            </g>
        </g>
    </g>
</svg>