<?xml version="1.0" encoding="UTF-8"?>
<svg width="2.08rem" height="2.08rem" viewBox="0 0 1024 1024" version="1.1" xmlns="http://www.w3.org/2000/svg" xmlns:xlink="http://www.w3.org/1999/xlink">
    <!-- Generator: Sketch 49 (51002) - http://www.bohemiancoding.com/sketch -->
    <title>recipe_ic_undo</title>
    <desc>Created with Sketch.</desc>
    <defs></defs>
    <g id="亲属端" stroke="none" stroke-width="1" fill="none" fill-rule="evenodd">
        <g id="Artboard" transform="translate(-2092.000000, -661.000000)" fill="#FF5252" fill-rule="nonzero">
            <g id="recipe_ic_undo" transform="translate(2092.000000, 661.000000)">
                <path d="M512.027973,1023.46452 C229.527125,1023.46452 0.527484878,794.464883 0.527484878,511.964035 C0.527484878,229.463187 229.527125,0.463547317 512.027973,0.463547317 C794.528821,0.463547317 1023.52846,229.463187 1023.52846,511.964035 C1023.52846,794.464883 794.528821,1023.46452 512.027973,1023.46452 Z M716.093813,354.082858 C728.589486,341.587185 728.589486,321.331042 716.093813,308.868253 C703.598141,296.405464 683.341998,296.372581 670.846326,308.868253 L512.513002,467.201577 L354.179678,308.868253 C341.684006,296.372581 321.427863,296.372581 308.932191,308.868253 C296.436518,321.363926 296.436518,341.587185 308.932191,354.082858 L467.265514,512.416181 L308.932191,670.749505 C296.436518,683.245177 296.436518,703.468437 308.932191,715.964109 C321.427863,728.459782 341.684006,728.459782 354.179678,715.964109 L512.513002,557.630786 L670.846326,715.964109 C683.341998,728.459782 703.598141,728.459782 716.093813,715.964109 C728.589486,703.468437 728.589486,683.212294 716.093813,670.749505 L557.76049,512.416181 L716.093813,354.082858 Z" id="Shape"></path>
            </g>
        </g>
    </g>
</svg>