<?xml version="1.0" encoding="UTF-8"?>
<svg width="640px" height="640px" viewBox="0 0 640 640" version="1.1" xmlns="http://www.w3.org/2000/svg" xmlns:xlink="http://www.w3.org/1999/xlink">
    <!-- Generator: Sketch 49 (51002) - http://www.bohemiancoding.com/sketch -->
    <title>report_personal_year</title>
    <desc>Created with Sketch.</desc>
    <defs></defs>
    <g id="亲属端" stroke="none" stroke-width="1" fill="none" fill-rule="evenodd">
        <g id="Artboard" transform="translate(-2270.000000, -3300.000000)" fill="#0ABA08">
            <g id="report_personal_year" transform="translate(2270.000000, 3300.000000)">
                <path d="M341,300 L299,258 C295.666667,173.333333 303.666667,117.666667 323,91 C360,46 400,-2.06566535e-13 504,-2.27373675e-13 C573.333333,-2.27373675e-13 618.666667,-2.27373675e-13 640,-2.27373675e-13 L640,70 C607.333333,194.666667 522.666667,249.666667 386,235 C386,221 386,204 386,191 C417,192 570,217 598,46 C465,46 437,30 373,103 C345,144.333333 334.333333,210 341,300 Z" id="Path-4"></path>
                <path d="M42.4756287,640 L0.580575033,640 C0.683721089,535.333333 0.683721089,482.953884 0.580575033,482.861651 C-2.3328421,400.516959 5.71873093,346.229742 24.7352941,320 C61.7352941,275 101.735294,229 205.735294,229 C275.068627,229 320.401961,229 341.735294,229 L341.735294,299 C309.068627,423.666667 224.401961,478.666667 87.7352941,464 C87.7352941,450 87.7352941,433 87.7352941,420 C118.735294,421 271.735294,446 299.735294,275 C166.735294,275 138.735294,259 74.7352941,332 C47.1120031,372.777239 42.4756287,436 42.4756287,525.380663 C42.4756287,526.184729 42.4756287,564.391175 42.4756287,640 Z" id="Path-4" transform="translate(170.867647, 434.500000) scale(-1, 1) translate(-170.867647, -434.500000) "></path>
            </g>
        </g>
    </g>
</svg>