<?xml version="1.0" encoding="UTF-8"?>
<svg width="1024px" height="1024px" viewBox="0 0 1024 1024" version="1.1" xmlns="http://www.w3.org/2000/svg" xmlns:xlink="http://www.w3.org/1999/xlink">
    <!-- Generator: Sketch 48.1 (47250) - http://www.bohemiancoding.com/sketch -->
    <title>report_ic_precautions</title>
    <desc>Created with Sketch.</desc>
    <defs></defs>
    <g id="Artboard" stroke="none" stroke-width="1" fill="none" fill-rule="evenodd" transform="translate(-825.000000, -9189.000000)">
        <g id="report_ic_precautions" transform="translate(825.000000, 9189.000000)">
            <circle id="Oval" fill="#0ABA08" cx="512" cy="512" r="512"></circle>
            <path d="M539.814046,529.959252 L539.814046,632.481131 C539.814046,658.768924 540.076591,674.278489 540.60169,679.010292 C543.227184,702.669305 550.315913,714.498635 561.868088,714.498635 C564.493582,714.498635 571.057219,713.184265 581.559197,710.555486 C584.184691,709.503974 588.122873,708.978226 593.373862,708.978226 C613.327619,708.978226 623.304348,717.653067 623.304348,735.003011 C623.304348,742.363593 620.022529,748.672568 613.458793,753.930127 C606.895058,759.187685 598.624874,761.816425 588.647996,761.816425 C580.246414,761.816425 567.512958,760.633492 550.447244,758.267591 C533.381531,755.901689 520.648075,754.718757 512.246493,754.718757 C498.593923,754.718757 483.366284,755.770253 466.56312,757.873276 C446.084264,760.502055 432.431899,761.816425 425.605613,761.816425 C404.601659,761.816425 394.099839,752.87871 394.099839,735.003011 C394.099839,717.653067 403.026386,708.978226 420.879747,708.978226 C425.080538,708.978226 431.250357,709.766848 439.38939,711.344115 C447.528422,712.921383 453.698241,713.710005 457.899032,713.710005 C470.501405,713.710005 478.115224,696.88607 480.740719,663.237695 L480.740719,461.348456 C478.115224,428.225837 470.238859,411.664776 457.111388,411.664776 C452.910597,411.664776 447.003323,412.584835 439.38939,414.424981 C431.775456,416.265126 426.130728,417.185185 422.455036,417.185185 C403.551477,417.185185 394.099839,408.773218 394.099839,391.94903 C394.099839,374.073331 405.651841,365.135616 428.756191,365.135616 C438.733069,365.135616 445.821798,365.39849 450.022589,365.924246 C466.825752,368.027269 477.590118,369.078765 482.316007,369.078765 C486.516798,369.078765 492.949163,368.42158 501.613294,367.10719 C510.277425,365.792801 516.70979,365.135616 520.910581,365.135616 C536.138448,365.135616 543.752267,375.387701 543.752267,395.89218 C543.752267,397.995203 543.489722,401.149691 542.964623,405.355738 C542.439524,409.561784 542.176979,412.716272 542.176979,414.819296 C541.65188,419.025343 541.126789,435.32353 540.60169,463.714346 C540.076591,485.270336 539.814046,507.35175 539.814046,529.959252 Z M498.856539,323.338234 C486.779265,323.338234 476.408718,319.000814 467.744587,310.325842 C459.080455,301.65087 454.748455,291.267348 454.748455,279.174963 C454.748455,267.082579 459.080455,256.830493 467.744587,248.418399 C476.408718,240.006306 486.779265,235.800322 498.856539,235.800322 C510.933813,235.800322 521.30436,240.006306 529.968491,248.418399 C538.632622,256.830493 542.964623,267.082579 542.964623,279.174963 C542.964623,291.267348 538.632622,301.65087 529.968491,310.325842 C521.30436,319.000814 510.933813,323.338234 498.856539,323.338234 Z" id="i" fill="#FFFFFF"></path>
        </g>
    </g>
</svg>