<?xml version="1.0" encoding="UTF-8"?>
<svg width="640px" height="640px" viewBox="0 0 640 640" version="1.1" xmlns="http://www.w3.org/2000/svg" xmlns:xlink="http://www.w3.org/1999/xlink">
    <!-- Generator: Sketch 49 (51002) - http://www.bohemiancoding.com/sketch -->
    <title>report_personal_name</title>
    <desc>Created with Sketch.</desc>
    <defs></defs>
    <g id="亲属端" stroke="none" stroke-width="1" fill="none" fill-rule="evenodd">
        <g id="Artboard" transform="translate(-2142.000000, -4381.000000)" fill="#0ABA08" fill-rule="nonzero">
            <g id="report_personal_name" transform="translate(2142.000000, 4381.000000)">
                <path d="M371.280937,312 C436.056856,290.666667 481.939799,230.666667 481.939799,160 C481.939799,72 409.06689,0 320,0 C230.93311,0 158.060201,72 158.060201,160 C158.060201,230.666667 203.943144,290.666667 268.719063,312 C154.011706,334.666667 20,430.666667 20,546.666667 C20,598.666667 61.8344479,640 114.464883,640 L525.535117,640 C578.165551,640 619.999999,598.666667 620,546.666667 C620,430.666667 485.988294,334.666667 371.280937,312 Z M189.063545,160 C189.063545,86.6666669 245.777592,30.6666669 320,30.6666669 C394.222408,30.6666669 450.936455,86.6666669 450.936455,160 C450.936455,233.333333 394.222408,289.333333 320,289.333333 C245.777592,289.333333 189.063545,233.333333 189.063545,160 Z M114.464883,609.333333 C76.6789304,609.333333 51.0033447,584 51.0033447,546.666667 C51.0033447,424 205.292642,347.333334 320,347.333333 C434.707358,347.333332 588.996655,424 588.996655,546.666667 C588.996655,584 563.32107,609.333334 525.535117,609.333333 L114.464883,609.333333 Z" id="Shape"></path>
            </g>
        </g>
    </g>
</svg>