<?xml version="1.0" encoding="UTF-8"?>
<svg width="640px" height="640px" viewBox="0 0 640 640" version="1.1" xmlns="http://www.w3.org/2000/svg" xmlns:xlink="http://www.w3.org/1999/xlink">
    <!-- Generator: Sketch 49 (51002) - http://www.bohemiancoding.com/sketch -->
    <title>report_personal_gender</title>
    <desc>Created with Sketch.</desc>
    <defs></defs>
    <g id="亲属端" stroke="none" stroke-width="1" fill="none" fill-rule="evenodd">
        <g id="Artboard" transform="translate(-2910.000000, -5561.000000)" fill="#4CAF50" fill-rule="nonzero">
            <g id="report_personal_gender" transform="translate(2910.000000, 5561.000000)">
                <path d="M180.310981,444.987167 L293.01943,444.987167 L293.01943,484.957823 L180.311955,484.957823 L180.311955,640 L139.125351,640 L139.125351,484.957823 L33.6294234,484.957823 L33.6294234,444.987167 L139.124377,444.987167 L139.124377,354.949816 C60.6270725,344.801643 0,271.016672 0,190.141594 C0,102.250555 71.6036794,31 159.930926,31 C248.259147,31 319.862827,102.250555 319.862827,190.141594 C319.862827,273.909362 262.883474,349.561054 180.310981,355.81869 L180.310981,444.987167 Z M159.930926,313.173533 C228.216391,313.173533 283.5729,258.090235 283.5729,190.141594 C283.5729,122.192953 228.216391,67.1106251 159.930926,67.1106251 C91.6454614,67.1106251 36.289927,122.193923 36.289927,190.141594 C36.289927,258.090235 91.6454614,313.173533 159.930926,313.173533 Z" id="Shape"></path>
                <path d="M455.303304,78.2035328 L410.808934,123.513078 L386.499124,97.7023151 L476.918413,0 L573.961846,97.6377108 L542.306831,126.513078 L495.496574,78.204501 L495.496574,257.301876 C575.177427,266.380518 639.07391,341.579122 639.07391,423.129088 C639.07391,510.871545 558.368045,587 470.002054,587 C381.635088,587 310,510.871545 310,423.129088 C310,340.307899 373.827138,264.288277 455.303304,256.919444 L455.303304,78.2035328 Z M596.111505,423.129088 C596.111505,353.972819 539.649824,297.911212 470.001079,297.911212 C400.354285,297.911212 354.979108,353.972819 354.979108,423.129088 C354.979108,492.285356 400.354285,548.346964 470.002054,548.346964 C539.649824,548.346964 596.111505,492.285356 596.111505,423.129088 Z" id="Shape"></path>
            </g>
        </g>
    </g>
</svg>